Coordinates
version=1
nRows=16
nColumns=36
inDegrees=yes

Units are S.I. units (second, meters, Newtons, ...)
If the header above contains a line with 'inDegrees', this indicates whether rotational values are in degrees (yes) or radians (no).

endheader
time	pelvis_tilt	pelvis_list	pelvis_rotation	pelvis_tx	pelvis_ty	pelvis_tz	hip_flexion_r	hip_adduction_r	hip_rotation_r	knee_angle_r	knee_angle_r_beta	ankle_angle_r	subtalar_angle_r	mtp_angle_r	hip_flexion_l	hip_adduction_l	hip_rotation_l	knee_angle_l	knee_angle_l_beta	ankle_angle_l	subtalar_angle_l	mtp_angle_l	lumbar_extension	lumbar_bending	lumbar_rotation	arm_flex_r	arm_add_r	arm_rot_r	elbow_flex_r	pro_sup_r	arm_flex_l	arm_add_l	arm_rot_l	elbow_flex_l	pro_sup_l
      7.55000000	     -4.68717698	     -2.15884274	     -5.13902894	      0.74328421	      0.97586673	      0.38171329	     11.48852805	     -1.51790218	      2.49899957	     12.49227271	      0.21803129	      6.24243273	     -3.77388534	     -7.49999987	     10.41847804	      0.21778723	      3.76096892	     11.56556615	      0.20185721	     10.72789029	      0.37204229	     -7.49999987	     -7.77293433	      0.47338163	      1.33183491	     20.78047058	     -5.36065762	     54.91614714	    110.77098289	     89.55094364	     32.56078319	     -6.70376301	     62.84162932	    105.56981738	     92.08997698
      7.56666670	     -4.94212270	     -2.05942506	     -5.13328720	      0.73884474	      0.97231641	      0.38471632	     11.54698113	     -1.57309647	      2.42903445	     11.94524213	      0.20848381	      6.19090129	     -3.72829312	     -7.49999987	     10.96122448	      0.09312015	      3.56246821	     11.75245329	      0.20511901	     10.94273176	      0.69819280	     -7.49999987	     -7.91841443	      0.29219470	      1.59287731	     21.66660990	     -5.56699167	     55.50083927	    111.19558948	     89.83891372	     33.50839073	     -6.67654598	     63.51953712	    105.76712998	     92.41177734
      7.58333330	     -5.10647495	     -1.92511135	     -5.18923555	      0.73429895	      0.97372175	      0.38792462	     11.73433988	     -1.63048341	      2.36349594	     11.65387715	      0.20339853	      6.27643873	     -3.73459552	     -7.49999987	     11.31434316	     -0.00978122	      3.55586099	     11.69258438	      0.20407410	     10.94768374	      0.71566828	     -7.49999987	     -8.26919239	      0.16578253	      1.68190681	     21.89327523	     -5.66106534	     55.42239379	    111.14856757	     89.84576535	     33.61888172	     -6.79451351	     63.47851037	    105.72262288	     92.42095964
      7.60000000	     -5.07930272	     -1.84707946	     -5.14503060	      0.73578600	      0.96489247	      0.39264431	     11.53869385	     -1.61735268	      2.17194176	     11.09202941	      0.19359243	      6.29328423	     -3.31777304	     -7.49999987	     11.54012255	     -0.19467110	      3.18707542	     11.87879935	      0.20732416	     11.13246646	      1.18474523	     -7.49999987	     -8.20829823	      0.04370589	      2.01123994	     22.61276742	     -6.26263415	     56.20013014	    112.01764472	     87.85867898	     34.62975414	     -6.65060359	     64.04962260	    105.87137352	     89.99693119
      7.61666670	     -5.76691501	     -1.69243011	     -5.16555253	      0.73141322	      0.96406647	      0.39585486	     12.47690061	     -1.65432745	      2.09089483	     11.01342377	      0.19222051	      6.34647426	     -3.16442163	     -7.49999987	     12.63886063	     -0.35175767	      3.04811723	     12.18220508	      0.21261959	     11.29740633	      1.41894360	     -7.49999987	     -7.64181229	     -0.00386798	      2.27877524	     22.84380688	     -6.48762316	     56.34077224	    112.56300962	     87.18598370	     34.83480326	     -6.80412954	     64.01626018	    106.50323303	     89.32240102
      7.63333330	     -5.98589451	     -1.61793438	     -5.13082437	      0.73280061	      0.95886281	      0.40101243	     12.80218501	     -1.57591863	      2.04356558	     11.00192222	      0.19201977	      6.57192814	     -3.01021107	     -7.49999987	     13.16598496	     -0.58816067	      2.73723791	     12.44291944	      0.21716991	     11.42355757	      1.78320443	     -7.49999987	     -7.30375312	     -0.06255688	      2.76166537	     22.81474504	     -6.59117243	     56.40464509	    112.97493779	     93.01157055	     34.69729221	     -6.48366346	     63.42872216	    106.41332213	     94.99093381
      7.65000000	     -6.00810144	     -1.58118438	     -5.06382992	      0.73777898	      0.96545324	      0.40403554	     12.62108410	     -1.51435629	      1.97610229	     10.56119595	      0.18432764	      6.66276980	     -2.73173610	     -7.49999987	     13.08797258	     -0.80905883	      2.71939793	     12.20770867	      0.21306471	     11.27927763	      1.90797435	     -7.49999987	     -7.26222886	     -0.01617391	      2.96583289	     22.49835758	     -6.78308482	     56.53291487	    112.76042425	     93.00599046	     34.15854670	     -6.58764643	     63.56223218	    106.29864269	     94.99108973
      7.66666670	     -5.37982684	     -1.57759334	     -4.89373870	      0.74283586	      0.97621492	      0.40659305	     11.25591077	     -1.46424510	      1.50822811	      9.48458410	      0.16553722	      6.61594812	     -1.92373682	     -7.49999987	     12.01418006	     -0.96441318	      2.86289327	     11.56716500	      0.20188511	     10.83378155	      2.14053099	     -7.49999987	     -7.99274193	      0.05129492	      2.96861729	     21.86820498	     -6.92809672	     56.75201378	    111.89478675	     92.60860691	     33.19939253	     -6.46026749	     63.41986104	    105.16791375	     94.53581784
      7.68333330	     -5.12106633	     -1.59243983	     -4.80739044	      0.74370697	      0.97425493	      0.41195127	     10.32105353	     -1.30713635	      1.33801522	      8.38280168	      0.14630749	      6.41927591	     -1.51639702	     -7.49999987	     11.39649191	     -1.15317160	      3.12181094	     10.99208559	      0.19184809	     10.56687206	      2.25038313	     -7.49999987	     -8.21742233	      0.06026964	      2.90524123	     21.33156295	     -6.80941117	     56.56928323	    111.23728377	     92.78375182	     32.32231521	     -6.38579805	     63.38395354	    104.58185918	     94.63181777
      7.70000000	     -4.61547872	     -1.67085684	     -4.55315432	      0.74441232	      0.97941070	      0.41672101	      9.02053974	     -1.09148159	      1.10122249	      7.25707013	      0.12665977	      6.24491671	     -1.00649183	     -7.49999987	     10.40695332	     -1.38298399	      3.39500966	     10.22091957	      0.17838870	     10.41211999	      2.45406140	     -7.49999987	     -8.78320382	     -0.02172339	      2.82854268	     20.88617481	     -6.68755526	     56.15735460	    110.70236616	     92.93148228	     31.76051853	     -6.40765160	     63.12014912	    104.11663827	     94.69612211
      7.71666670	     -3.99664023	     -1.68530037	     -4.46102599	      0.74377107	      0.97985525	      0.41658190	      7.80793853	     -0.95480796	      0.95341152	      6.39758650	      0.11165895	      6.05906652	     -0.64599815	     -7.49999987	      9.26182361	     -1.54584498	      3.55441269	      9.44299527	      0.16481136	     10.23737830	      2.57931184	     -7.49999987	     -9.45265876	     -0.02233530	      2.58697929	     20.61925167	     -6.87186881	     56.00475119	    111.10223288	     92.47671164	     31.71697202	     -6.19216509	     63.19425566	    103.97325454	     94.14144643
      7.73333330	     -3.64072065	     -1.71268952	     -4.41778194	      0.74449464	      0.97983629	      0.42153120	      6.90560441	     -0.78442068	      0.88610576	      5.60310302	      0.09779260	      5.90528509	     -0.45197605	     -7.49999987	      8.51865944	     -1.76851875	      3.72371973	      8.89067528	      0.15517156	     10.11378714	      2.68640564	     -7.49999987	     -9.74754704	     -0.00011195	      2.30482859	     20.02605205	     -6.84308779	     55.82213387	    111.37646879	     92.35333807	     31.50756066	     -6.08315045	     62.88411485	    103.89229863	     94.04818086
      7.75000000	     -3.63932759	     -1.69042329	     -4.39813209	      0.73954637	      0.97678769	      0.42478264	      6.78045912	     -0.63542498	      0.97679758	      5.45852632	      0.09526926	      5.91967869	     -0.37583926	     -7.49999987	      8.51911313	     -1.96003827	      3.71566334	      8.76168726	      0.15292029	     10.15609561	      2.69425734	     -7.49999987	     -9.53444814	     -0.01248075	      2.11069084	     20.03476440	     -6.79248644	     55.76107240	    111.46045756	     92.36385886	     31.65742996	     -5.92753761	     62.83788129	    103.94842452	     94.05783692
      7.76666670	     -3.57861459	     -1.80956659	     -4.30049080	      0.73670353	      0.96873784	      0.43242616	      6.48092400	     -0.30959599	      1.00015576	      5.02743594	      0.08774531	      5.80056863	     -0.40698297	     -7.49999987	      8.54880835	     -2.32035438	      3.55569440	      8.77720361	      0.15319110	     10.31123703	      3.11886135	     -7.49999987	     -9.50867232	     -0.00262688	      1.67734220	     19.84359493	     -6.21911877	     55.38135926	    112.03835334	     90.65074221	     32.46175330	     -6.03701292	     62.68749329	    104.26188456	     92.38458509
      7.78333330	     -3.44534394	     -1.86002675	     -4.31876192	      0.73654396	      0.96676661	      0.43240360	      6.23606692	     -0.13251203	      1.02244931	      4.87234113	      0.08503840	      5.83179491	     -0.23871815	     -7.49999987	      8.37571568	     -2.58733076	      3.45047150	      8.68970712	      0.15166400	     10.26417625	      3.12371417	     -7.49999987	     -9.43451035	      0.08182068	      1.48891492	     19.91154139	     -6.17509561	     55.31475791	    112.48032266	     89.98779355	     32.77728033	     -5.82122572	     62.71412323	    104.31940873	     91.75638998
      7.80000000	     -3.41498111	     -1.86107561	     -4.28880302	      0.73221799	      0.96589345	      0.43502224	      6.22064271	      0.00976384	      1.03417800	      4.83961543	      0.08446722	      5.85494004	     -0.21773313	     -7.49999987	      8.41867205	     -2.79112195	      3.38618829	      8.66542935	      0.15124027	     10.22920853	      3.11359681	     -7.49999987	     -9.34670498	      0.01471008	      1.43406292	     19.94326004	     -6.12270350	     55.31529335	    112.49748428	     90.01209431	     32.85976782	     -5.79070287	     62.69624360	    104.29146637	     91.78091254
